<svg width="131" height="135" viewBox="0 0 131 135" fill="none" xmlns="http://www.w3.org/2000/svg">
<path d="M56.3788 101.202C58.4707 101.202 60.1079 99.2042 61.2904 97.2061C62.4728 95.2081 64.9286 96.9337 65.2014 98.3868C65.4743 99.84 63.5642 104.653 59.3803 105.925C55.1963 107.196 48.2837 99.4767 49.6481 97.9327C51.2853 96.2979 53.3772 101.202 56.3788 101.202Z" fill="#111835"/>
<path d="M122.274 86.1992C126.276 110.539 104.174 129.339 89.0752 131.882C73.9766 134.425 62.1523 121.165 62.1523 121.165C98.4436 121.529 122.274 86.3809 122.274 86.1992Z" fill="#111835"/>
<path d="M43.1429 49.1436C28.8629 36.0653 6.5788 30.162 3.57727 32.0692C0.666691 34.1581 -0.333819 47.1455 2.4858 59.1339C5.30542 71.2132 16.1291 84.9272 16.1291 84.9272C22.8598 65.1281 43.1429 49.1436 43.1429 49.1436Z" fill="#E8460C"/>
<path d="M39.5039 52.3232C34.2285 57.2275 24.3143 67.2179 18.4932 79.2971C15.3097 74.756 9.57953 65.7647 7.30564 57.9541C4.03125 46.6923 6.30513 39.4266 7.30564 38.3367C10.3072 36.7928 30.0445 38.6092 39.5039 52.3232Z" fill="#FFB89E"/>
<path d="M118.817 65.0382C131.732 36.9745 111.449 1.19091 109.357 0.918447C107.265 0.37352 96.4415 5.45951 88.1646 16.2672C79.9786 27.075 75.3398 40.244 75.3398 40.244L118.817 65.0382Z" fill="#E8460C"/>
<path d="M108.084 8.81892C109.357 8.90974 120.999 40.6972 112.358 61.3136L80.7969 43.331C82.2522 38.4266 85.2537 30.2527 89.4376 24.2585C95.8045 15.0856 106.719 8.45564 108.084 8.81892Z" fill="#FFB89E"/>
<path d="M14.1286 90.5575C16.0387 102.818 8.39844 109.902 8.39844 109.902C31.683 138.057 72.613 142.416 101.082 121.164C129.551 99.912 130.37 63.0386 130.37 63.0386C123.275 65.6725 111.724 58.6792 101.81 47.8715C91.8956 37.0638 71.6125 29.9797 51.3294 37.972C16.7663 51.686 11.4909 73.3014 14.1286 90.5575Z" fill="#FF7544"/>
<path d="M53.6934 105.18C55.9673 104.544 63.6076 98.0955 62.607 94.4626C61.6975 90.8298 42.324 95.1892 42.9607 98.0955C43.9612 102.001 51.6014 105.724 53.6934 105.18Z" fill="#111835"/>
<path d="M39.7773 112.174C39.7773 112.174 41.8693 118.895 47.3266 116.715C52.5111 114.626 53.6935 105.09 53.6935 105.09C53.6935 105.09 56.786 112.628 61.7886 113.355C69.4288 114.444 70.4293 107.36 70.4293 107.36" stroke="#111835" stroke-width="1.4873" stroke-miterlimit="10" stroke-linecap="round" stroke-linejoin="round"/>
<path d="M81.5284 78.2982C83.2565 79.4789 78.2539 89.1059 73.6152 88.9243C68.9765 88.7426 65.793 84.2016 65.7021 82.6576C65.6111 81.1136 67.7031 78.6615 69.4313 80.4779C71.1594 82.2035 73.3423 83.8383 75.5253 83.2934C78.4359 82.5668 79.3454 77.0267 81.5284 78.2982Z" fill="#111835"/>
<path d="M34.3201 91.5593C32.5919 92.195 30.5909 91.196 29.0446 90.1061C27.5894 89.1071 26.316 91.196 26.4069 92.3767C26.4979 93.5573 29.5904 97.4627 33.9562 97.0994C38.504 96.7361 40.0503 87.3815 38.2311 86.8366C36.2301 86.11 36.8668 90.3786 34.3201 91.5593Z" fill="#111835"/>
<path d="M85.8897 91.6496C88.8002 89.5607 91.8018 87.4718 94.8033 85.4737C97.8048 83.4757 100.806 81.5684 103.99 79.8428C107.173 78.1172 110.357 76.5733 113.54 74.8477C111.721 75.3926 110.084 76.0283 108.356 76.6641C106.718 77.4815 105.081 78.1172 103.444 78.9346C100.17 80.3877 96.8953 82.295 93.8937 84.2931C90.8922 86.2911 87.9816 88.38 85.162 90.7414C83.7977 91.922 82.3424 93.1027 81.069 94.3742C79.7956 95.6457 78.4313 97.008 77.3398 98.3703C80.0685 95.9182 82.7062 93.6476 85.8897 91.6496Z" fill="white"/>
<path d="M87.3484 100.457C89.9861 100.093 92.6238 99.9118 95.2615 99.7302C97.9902 99.6393 100.537 99.5485 103.266 99.6393C105.994 99.821 108.541 100.003 111.27 100.093C108.723 99.3669 106.176 98.8219 103.357 98.5495C100.719 98.1862 98.0812 98.1862 95.3525 98.277C92.7148 98.4587 89.9861 98.9128 87.3484 99.3669C84.7107 99.9118 82.073 100.729 79.6172 101.91C82.073 101.365 84.6197 101.002 87.3484 100.457Z" fill="white"/>
<path d="M31.5034 100.094C29.0476 99.0947 26.5008 98.3681 23.8631 97.8232C21.3163 97.2782 18.5877 96.915 16.0409 96.915C13.4942 96.7333 10.7655 97.0966 8.21875 97.5507C10.8565 97.5507 13.4032 97.7323 15.95 98.0048C18.4967 98.2773 21.0435 98.6406 23.5902 99.1855C26.137 99.7304 28.5018 100.457 31.0486 101.184C33.5044 102.001 35.9602 103 38.325 103.999C36.324 102.364 34.0501 101.184 31.5034 100.094Z" fill="white"/>
<path d="M21.5849 112.355C19.5838 113.354 17.4919 114.625 15.7637 115.987C13.7627 117.35 12.1255 118.894 10.4883 120.528L16.3094 116.896C18.4014 115.715 20.3115 114.534 22.3125 113.535C24.3135 112.536 26.3145 111.537 28.4065 110.629C30.4985 109.721 32.5905 108.813 34.7734 108.086C29.9528 108.631 25.5869 110.356 21.5849 112.355Z" fill="white"/>
</svg>
